# xmcd CD database file
#
# Track frame offsets:
#	150
#	17957
#	40785
#	68070
#	97205
#	114850
#	146230
#	174188
#	201425
#	228945
#
# Disc length: 3364 seconds
#
# Revision: 0
# Processed by: cddbd v1.4PL0 Copyright (c) Steve Scherf et al.
# Submitted via: CDex 1.50Beta5
#
DISCID=870d220a
DTITLE=Lew Tabackin - Pyramid
DYEAR=1999
DGENRE=Jazz
TTITLE0=Battle Royal
TTITLE1=Isfahan
TTITLE2=Speak Low
TTITLE3=Broken Dreams
TTITLE4=Night and Day
TTITLE5=Yesterdays
TTITLE6=Are You Real?
TTITLE7=Pyramid
TTITLE8=All Too Soon
TTITLE9=Sweet and Lovely
EXTD=YEAR: 1999
EXTT0=
EXTT1=
EXTT2=
EXTT3=
EXTT4=
EXTT5=
EXTT6=
EXTT7=
EXTT8=
EXTT9=
PLAYORDER=
